<svg width="147.2" height="32" viewBox="0 0 161 35" fill="none" xmlns="http://www.w3.org/2000/svg">
<rect width="161" height="35" rx="4.8" fill="#2E59C7"/>
<path d="M16 15.8815H20.4433L22.6094 17.2889H18.2216L16 15.8815Z" fill="white"/>
<path opacity="0.85" d="M16.4219 13.7704H20.5815L22.6094 17.2889H18.5017L16.4219 13.7704Z" fill="white"/>
<path opacity="0.75" d="M16.9844 11.6593H20.7659L22.6094 17.2889H18.8751L16.9844 11.6593Z" fill="white"/>
<path opacity="0.5" d="M17.6875 9.68889H20.9963L22.6094 17.2889H19.3419L17.6875 9.68889Z" fill="white"/>
<path opacity="0.25" d="M18.3906 8H21.2268L22.6094 17.2889H19.8087L18.3906 8Z" fill="white"/>
<path d="M25 19.1185H20.5567L18.3906 17.7111H22.7784L25 19.1185Z" fill="white"/>
<path opacity="0.85" d="M24.5781 21.2296H20.4185L18.3906 17.7111H22.4983L24.5781 21.2296Z" fill="white"/>
<path opacity="0.75" d="M24.0156 23.3407H20.2341L18.3906 17.7111H22.1249L24.0156 23.3407Z" fill="white"/>
<path opacity="0.5" d="M23.3125 25.3111H20.0037L18.3906 17.7111H21.6581L23.3125 25.3111Z" fill="white"/>
<path opacity="0.25" d="M22.6094 27H19.7732L18.3906 17.7111H21.1913L22.6094 27Z" fill="white"/>
<path d="M37.9025 22.5H34.5845V12.91H37.9025C39.3772 12.91 40.3852 13.2833 40.9265 14.03C41.4678 14.7767 41.7385 15.948 41.7385 17.544C41.7385 18.356 41.6825 19.0467 41.5705 19.616C41.4678 20.176 41.2812 20.6847 41.0105 21.142C40.4785 22.0473 39.4425 22.5 37.9025 22.5ZM40.1285 17.544C40.1285 16.3867 39.9838 15.5513 39.6945 15.038C39.4052 14.5247 38.8078 14.268 37.9025 14.268H36.1385V21.128H37.9025C38.8265 21.128 39.4425 20.7873 39.7505 20.106C39.8998 19.7607 39.9978 19.392 40.0445 19C40.1005 18.608 40.1285 18.1227 40.1285 17.544ZM43.5533 22.5V12.91H49.6013V14.268H45.1073V16.984H48.7613V18.328H45.1073V21.128H49.6013V22.5H43.5533ZM54.8055 19.518H52.8455V22.5H51.2915V12.91H54.8055C56.9802 12.91 58.0675 13.9833 58.0675 16.13C58.0675 17.2313 57.7922 18.0713 57.2415 18.65C56.7002 19.2287 55.8882 19.518 54.8055 19.518ZM52.8455 18.174H54.7915C55.9115 18.174 56.4715 17.4927 56.4715 16.13C56.4715 15.4767 56.3362 15.0007 56.0655 14.702C55.7949 14.4033 55.3702 14.254 54.7915 14.254H52.8455V18.174ZM64.939 22.5H59.563V12.91H61.117V21.114H64.939V22.5ZM67.7095 20.47C68.0268 21.0207 68.6335 21.296 69.5295 21.296C70.4255 21.296 71.0275 21.0253 71.3355 20.484C71.6528 19.9427 71.8115 19.0373 71.8115 17.768C71.8115 16.4893 71.6482 15.5607 71.3215 14.982C71.0042 14.4033 70.4068 14.114 69.5295 14.114C68.6522 14.114 68.0502 14.4033 67.7235 14.982C67.3968 15.5607 67.2335 16.4847 67.2335 17.754C67.2335 19.014 67.3922 19.9193 67.7095 20.47ZM72.5535 21.478C71.9842 22.262 70.9762 22.654 69.5295 22.654C68.0828 22.654 67.0702 22.262 66.4915 21.478C65.9128 20.6847 65.6235 19.4433 65.6235 17.754C65.6235 16.0647 65.9128 14.8093 66.4915 13.988C67.0795 13.1667 68.0922 12.756 69.5295 12.756C70.9668 12.756 71.9748 13.1667 72.5535 13.988C73.1322 14.8 73.4215 16.0553 73.4215 17.754C73.4215 19.4527 73.1322 20.694 72.5535 21.478ZM78.3625 22.5H76.7945V18.552L73.7845 12.91H75.5345L77.5645 17.026L79.6085 12.91H81.3445L78.3625 18.552V22.5ZM84.6703 14.296V12.91H91.6703V14.296H88.9683V22.5H87.4003V14.296H84.6703ZM94.4654 20.47C94.7827 21.0207 95.3894 21.296 96.2854 21.296C97.1814 21.296 97.7834 21.0253 98.0914 20.484C98.4087 19.9427 98.5674 19.0373 98.5674 17.768C98.5674 16.4893 98.404 15.5607 98.0774 14.982C97.76 14.4033 97.1627 14.114 96.2854 14.114C95.408 14.114 94.806 14.4033 94.4794 14.982C94.1527 15.5607 93.9894 16.4847 93.9894 17.754C93.9894 19.014 94.148 19.9193 94.4654 20.47ZM99.3094 21.478C98.74 22.262 97.732 22.654 96.2854 22.654C94.8387 22.654 93.826 22.262 93.2474 21.478C92.6687 20.6847 92.3794 19.4433 92.3794 17.754C92.3794 16.0647 92.6687 14.8093 93.2474 13.988C93.8354 13.1667 94.848 12.756 96.2854 12.756C97.7227 12.756 98.7307 13.1667 99.3094 13.988C99.888 14.8 100.177 16.0553 100.177 17.754C100.177 19.4527 99.888 20.694 99.3094 21.478ZM108.283 22.654C106.883 22.654 105.931 22.2667 105.427 21.492C104.932 20.7173 104.685 19.4433 104.685 17.67C104.685 15.8967 104.937 14.6367 105.441 13.89C105.945 13.134 106.892 12.756 108.283 12.756C109.114 12.756 110.028 12.8727 111.027 13.106L110.971 14.366C110.131 14.2167 109.291 14.142 108.451 14.142C107.611 14.142 107.042 14.394 106.743 14.898C106.444 15.3927 106.295 16.3307 106.295 17.712C106.295 19.084 106.44 20.022 106.729 20.526C107.018 21.0207 107.583 21.268 108.423 21.268C109.263 21.268 110.112 21.198 110.971 21.058L111.013 22.346C110.052 22.5513 109.142 22.654 108.283 22.654ZM116.206 22.5H114.638V18.552L111.628 12.91H113.378L115.408 17.026L117.452 12.91H119.188L116.206 18.552V22.5ZM123.213 22.654C121.813 22.654 120.861 22.2667 120.357 21.492C119.862 20.7173 119.615 19.4433 119.615 17.67C119.615 15.8967 119.867 14.6367 120.371 13.89C120.875 13.134 121.822 12.756 123.213 12.756C124.043 12.756 124.958 12.8727 125.957 13.106L125.901 14.366C125.061 14.2167 124.221 14.142 123.381 14.142C122.541 14.142 121.971 14.394 121.673 14.898C121.374 15.3927 121.225 16.3307 121.225 17.712C121.225 19.084 121.369 20.022 121.659 20.526C121.948 21.0207 122.513 21.268 123.353 21.268C124.193 21.268 125.042 21.198 125.901 21.058L125.943 22.346C124.981 22.5513 124.071 22.654 123.213 22.654ZM132.984 22.5H127.608V12.91H129.162V21.114H132.984V22.5ZM134.252 22.5V12.91H135.806V22.5H134.252ZM141.232 22.654C139.832 22.654 138.88 22.2667 138.376 21.492C137.882 20.7173 137.634 19.4433 137.634 17.67C137.634 15.8967 137.886 14.6367 138.39 13.89C138.894 13.134 139.842 12.756 141.232 12.756C142.063 12.756 142.978 12.8727 143.976 13.106L143.92 14.366C143.08 14.2167 142.24 14.142 141.4 14.142C140.56 14.142 139.991 14.394 139.692 14.898C139.394 15.3927 139.244 16.3307 139.244 17.712C139.244 19.084 139.389 20.022 139.678 20.526C139.968 21.0207 140.532 21.268 141.372 21.268C142.212 21.268 143.062 21.198 143.92 21.058L143.962 22.346C143.001 22.5513 142.091 22.654 141.232 22.654Z" fill="white"/>
</svg>
