<svg width="174.12" height="32" viewBox="0 0 185 34" fill="none" xmlns="http://www.w3.org/2000/svg">
<rect x="1" y="1" width="182.185" height="32" rx="4" fill="white" stroke="black" stroke-width="2"/>
<path d="M44.24 24L40.48 17.92C42.14 17.36 43.06 16.08 43.06 14.08C43.06 11.58 41.64 10.06 38.32 10.06H33.76V24H36.24V18.22H37.16H38L41.34 24H44.24ZM36.24 15.92V12.36H38.06C39.68 12.36 40.56 12.76 40.56 14.12C40.56 15.48 39.68 15.92 38.06 15.92H36.24ZM53.968 18.94C53.968 16.2 52.488 13.94 49.428 13.94C46.148 13.94 44.748 16.54 44.748 19.12C44.748 21.76 46.188 24.2 49.588 24.2C51.248 24.2 52.548 23.62 53.628 22.42L51.968 20.96C51.288 21.74 50.488 22.02 49.608 22.02C48.048 22.02 47.248 21.16 47.148 19.86H53.908C53.948 19.54 53.968 19.24 53.968 18.94ZM47.128 17.96C47.268 16.98 47.948 15.94 49.408 15.94C50.668 15.94 51.628 16.7 51.668 17.96H47.128ZM66.9591 13.94C65.6791 13.94 64.5391 14.4 63.7791 15.88C63.1791 14.36 61.9791 13.94 60.8991 13.94C59.9191 13.94 58.8991 14.28 58.2591 15.38V14.14H55.9391L55.9591 24H58.3591V20.24C58.3591 18.26 58.2991 16.04 60.3191 16.04C61.8791 16.04 61.9791 17.66 61.9791 18.44V24H64.3791V20.24C64.3791 18.26 64.2991 16.04 66.3191 16.04C67.8991 16.04 67.9991 17.66 67.9991 18.44V24H70.3991V17.72C70.3991 15.74 69.3391 13.94 66.9591 13.94ZM72.8908 12.28H75.4108V10.06H72.8908V12.28ZM72.9508 24H75.3508V14.14H72.9508V24ZM76.8061 24H79.7461L81.7861 20.68L83.8261 24H86.7661L83.3661 19.04L86.7661 14.14H83.8261L81.7861 17.4L79.7461 14.14H76.8061L80.1861 19.04L76.8061 24ZM97.1475 24.2C100.188 24.2 102.088 21.84 102.088 19.06C102.088 16.26 100.188 13.94 97.1475 13.94C94.0875 13.94 92.2075 16.26 92.2075 19.06C92.2075 21.84 94.0875 24.2 97.1475 24.2ZM97.1475 22.1C95.3275 22.1 94.6075 20.66 94.6075 19.06C94.6075 17.44 95.3275 16.04 97.1475 16.04C98.9675 16.04 99.6875 17.44 99.6875 19.06C99.6875 20.66 98.9675 22.1 97.1475 22.1ZM109.385 13.94C108.185 13.94 107.105 14.34 106.405 15.28V14.14H104.005V24H106.405V20.06C106.405 18.3 106.405 16.04 108.645 16.04C110.465 16.04 110.465 17.56 110.465 18.24V24H112.865V17.64C112.865 15.3 111.605 13.94 109.385 13.94ZM127.154 16.46V18.76H130.274V18.94C130.274 20.82 128.954 21.92 126.714 21.92C123.874 21.92 122.174 20.16 122.174 16.98C122.174 13.92 123.754 12.12 126.434 12.12C128.314 12.12 129.694 13 130.314 14.72L132.614 13.82C131.594 11.18 129.314 9.74 126.474 9.74C122.294 9.74 119.674 12.86 119.674 17C119.674 21.42 122.654 24.3 126.554 24.3C128.354 24.3 129.854 23.68 130.674 22.56L130.974 24H132.754V16.46H127.154ZM137.632 24.2C138.092 24.2 138.632 24.1 139.172 23.9V21.98C138.892 22.06 138.632 22.1 138.412 22.1C137.972 22.1 137.712 21.92 137.712 21.48V10.06H135.312V21.64C135.312 23.4 136.292 24.2 137.632 24.2ZM140.918 12.28H143.438V10.06H140.918V12.28ZM140.978 24H143.378V14.14H140.978V24ZM151.433 16.04V14.14H148.973V10.46L146.573 12.24V14.14H144.973V16.04H146.573V21.24C146.573 23.34 147.973 24.2 149.633 24.2C150.233 24.2 150.833 24.1 151.433 23.9V21.98C150.993 22.12 150.573 22.2 150.233 22.2C149.453 22.2 148.973 21.84 148.973 21.06V16.04H151.433ZM157.359 24.2C159.319 24.2 160.839 23.12 161.499 21.28L159.319 20.44C159.059 21.46 158.299 22.1 157.339 22.1C155.659 22.1 155.039 20.66 155.039 19.1C155.039 17.54 155.679 16.04 157.339 16.04C158.319 16.04 159.059 16.7 159.319 17.74L161.599 16.84C160.839 14.88 159.299 13.94 157.339 13.94C154.119 13.94 152.579 16.5 152.579 19.1C152.579 21.7 154.139 24.2 157.359 24.2ZM168.722 13.94C167.422 13.94 166.402 14.4 165.742 15.26V10.06H163.342V24H165.742V20.06C165.742 17.22 166.402 16.04 167.982 16.04C169.222 16.04 169.802 16.74 169.802 18.24V24H172.202V17.64C172.202 15.28 170.942 13.94 168.722 13.94Z" fill="black"/>
<mask id="mask0" mask-type="alpha" maskUnits="userSpaceOnUse" x="10" y="10" width="19" height="6">
<path fill-rule="evenodd" clip-rule="evenodd" d="M16.927 10.1545L16.9422 10.1552C17.2802 10.1798 20.5928 10.8857 20.8846 11.3479V11.3479L20.9195 11.402C21.193 11.816 21.332 11.7886 21.4776 11.8971V11.8971L21.4916 11.9073C21.6239 12.0042 21.5558 11.9247 22.2209 12.0724V12.0724L22.3304 12.0969C23.931 12.4598 23.7338 12.6083 24.9834 12.8347V12.8347L25.0126 12.8385C25.2906 12.8625 25.9771 12.6109 26.6331 12.3588V12.3588L26.702 12.3323C27.3668 12.0765 27.9847 11.8306 28.0934 11.8851V11.8851L28.1016 11.8911C28.2012 11.9893 28.2683 12.9484 27.8724 13.5829V13.5829L27.8354 13.6478C27.5486 14.2026 28.0516 14.6829 27.9413 15.3381L11.1264 15.3385C11.1372 15.3225 11.1431 15.3067 11.1431 15.291V15.291L11.1394 15.2701C11.0687 15.0629 10.0084 14.7113 10.0084 14.7113V14.7113C10.0026 14.6772 9.85862 13.7553 11.0527 12.8347V12.8347L11.1625 12.7508C12.3247 11.8704 13.2106 11.4504 14.2026 11.4V11.4L14.2887 11.3957C15.2452 11.3479 15.5686 11.3479 15.5686 11.3479C15.5686 11.3479 16.4591 10.1545 16.927 10.1545V10.1545Z" fill="white"/>
</mask>
<g mask="url(#mask0)">
<path fill-rule="evenodd" clip-rule="evenodd" d="M9.5209 15.3385H28.1613V10.1545H9.5209V15.3385Z" fill="#FF7698"/>
</g>
<mask id="mask1" mask-type="alpha" maskUnits="userSpaceOnUse" x="10" y="14" width="19" height="4">
<path fill-rule="evenodd" clip-rule="evenodd" d="M27.9054 14.7562C27.9666 15.0079 27.9953 15.2784 27.87 15.5891V15.5891L27.8429 15.6627C27.5827 16.4416 28.2423 17.0183 28.0937 17.286V17.286L28.0847 17.298C27.9668 17.4181 27.2307 17.157 26.4982 16.8957V16.8957L26.4254 16.8697C25.7941 16.6447 25.1809 16.4294 24.9837 16.4676V16.4676L24.9606 16.4723C24.5468 16.5634 23.4277 17.0741 21.2813 17.4665V17.4665L21.3334 17.4952C21.3839 17.5213 21.4304 17.5422 21.4779 17.5774V17.5774L21.4919 17.5877C21.5765 17.6496 21.5792 17.6394 21.7438 17.6626L18.4229 17.7616H17.1854L12.8578 17.3961C12.9623 17.352 13.066 17.3126 13.1694 17.2779V17.2779L13.1157 17.2697C12.4413 17.1557 10.7342 16.4681 10.1499 15.7355V15.7355L10.1536 15.7346C10.2196 15.7183 11.1434 15.4872 11.1434 15.2909V15.2909L11.1426 15.2862H21.1089V14.7564" fill="white"/>
</mask>
<g mask="url(#mask1)">
<path fill-rule="evenodd" clip-rule="evenodd" d="M26.0464 17.7617L28.1781 17.4716L28.2265 16.7922V15.2863L28.0604 14.7565H21.1086V15.2863H10.0077V16.7922L11.5067 17.2827L17.1852 17.7617H18.4226" fill="#FEC1EE"/>
</g>
<mask id="mask2" mask-type="alpha" maskUnits="userSpaceOnUse" x="10" y="16" width="19" height="5">
<path fill-rule="evenodd" clip-rule="evenodd" d="M23.6494 16.7922L23.6497 16.8939C23.0625 17.074 22.2839 17.2832 21.2809 17.4666V17.4666L21.333 17.4952C21.3835 17.5214 21.43 17.5422 21.4775 17.5775V17.5775L21.4914 17.5878C21.6238 17.6846 21.5556 17.6051 22.2208 17.7525V17.7525L22.3302 17.7771C23.9309 18.1402 23.7336 18.2885 24.9833 18.5151V18.5151L25.0125 18.5189C25.2905 18.5429 25.977 18.2911 26.6329 18.0392V18.0392L26.7018 18.0128C27.3666 17.7568 27.9845 17.5107 28.0933 17.5652V17.5652L28.1014 17.5713C28.2011 17.6697 28.2681 18.6288 27.8722 19.2634V19.2634L27.8353 19.3282C27.6353 19.7149 27.8193 20.0655 27.9117 20.4645L18.6564 20.4648V20.996L11.1383 20.9957C11.1414 20.9875 11.143 20.9793 11.143 20.9712V20.9712L11.1393 20.9503C11.0686 20.743 10.0083 20.3917 10.0083 20.3917V20.3917C10.0025 20.3576 9.85848 19.4357 11.0525 18.5151V18.5151L11.1712 18.4245C11.9169 17.8606 12.5492 17.4862 13.169 17.278L13.1569 17.2821L17.185 17.3132V16.7922H23.6494Z" fill="white"/>
</mask>
<g mask="url(#mask2)">
<path fill-rule="evenodd" clip-rule="evenodd" d="M17.1848 16.7922H23.6492V17.4833L28.2855 17.471V20.4648H18.6562V20.996H10.0073V17.471L12.7044 17.2787L17.1848 17.3132V16.7922Z" fill="#2800FF"/>
</g>
<mask id="mask3" mask-type="alpha" maskUnits="userSpaceOnUse" x="16" y="12" width="10" height="5">
<path fill-rule="evenodd" clip-rule="evenodd" d="M16.6444 12.3481L16.6488 12.3483V12.3483L16.6534 12.3484L16.6589 12.3487C16.6623 12.3489 16.6681 12.3492 16.6828 12.35V12.35L16.7087 12.3512C16.7267 12.3521 16.7462 12.3531 16.7674 12.3541V12.3541L16.8373 12.3576C16.9091 12.3612 16.9866 12.3652 17.0684 12.3693V12.3693L17.3013 12.3813C17.5336 12.3934 17.763 12.4056 17.9813 12.4175V12.4175L18.0811 12.4231C18.1468 12.4268 18.2106 12.4305 18.2725 12.434V12.434L18.3692 12.4396C18.5902 12.4525 18.7785 12.4644 18.9275 12.4747V12.4747L19.046 12.4836C19.6954 12.5367 20.6169 12.6764 21.3336 12.8185V12.8185L21.4547 12.8431C22.578 13.0761 23.5204 13.4183 24.9763 14.0591V14.0591L24.9992 14.0691C25.1347 14.1289 25.4805 14.2816 25.4886 14.2853V14.2853L25.5124 14.2979C25.5957 14.3501 25.6333 14.4638 25.5972 14.5652V14.5652L25.5858 14.5917C25.539 14.6842 25.4364 14.7265 25.3454 14.6863V14.6863L25.3399 14.6838C25.2914 14.662 24.9405 14.507 24.8339 14.4601V14.4601L24.6821 14.3936C23.283 13.7832 22.3725 13.4622 21.2655 13.2428V13.2428L21.1312 13.2166C20.4034 13.0778 19.501 12.9461 18.9033 12.9049V12.9049L18.8376 12.9004C18.6788 12.8898 18.4821 12.878 18.2528 12.8647V12.8647L18.1587 12.8594C18.095 12.8558 18.0293 12.8521 17.9618 12.8483V12.8483L17.7407 12.8362C17.5164 12.824 17.2835 12.8119 17.0503 12.8V12.8L17.002 12.7975V12.7975L16.9549 12.7951L16.9958 12.9054V12.9054L17.0355 13.0194L17.0798 13.154C17.136 13.3326 17.181 13.5078 17.2119 13.6758V13.6758L17.2258 13.7565C17.2343 13.8098 17.2412 13.862 17.2461 13.913V13.913L17.2504 13.9681C17.2646 14.2138 17.2173 14.5508 17.1231 14.9665V14.9665L17.0879 15.1169C17.0633 15.2187 17.0363 15.3232 17.0074 15.4298V15.4298L16.9673 15.5751C16.9266 15.7195 16.8842 15.8611 16.8418 15.9965V15.9965L16.8228 16.0579C16.8103 16.0974 16.7984 16.1342 16.7872 16.1679V16.1679L16.7791 16.1927V16.1927L16.7719 16.2149L16.7684 16.225V16.225L16.7661 16.2316L16.7552 16.2583C16.7099 16.3519 16.608 16.3961 16.5164 16.3576V16.3576L16.4924 16.3455C16.4082 16.2952 16.3684 16.1821 16.4031 16.08V16.08L16.4049 16.0744V16.0744L16.4081 16.0651L16.4149 16.0445V16.0445L16.4226 16.0205L16.4392 15.9697C16.4505 15.9343 16.4626 15.896 16.4754 15.8551V15.8551L16.5165 15.7217C16.5575 15.5866 16.5978 15.4467 16.636 15.3054V15.3054L16.6665 15.1909C16.6961 15.0776 16.7231 14.9674 16.7469 14.8613V14.8613L16.7644 14.7824C16.8429 14.4195 16.8782 14.1322 16.8605 13.9613V13.9613L16.8531 13.897C16.8474 13.8534 16.8402 13.8085 16.8316 13.7622V13.7622L16.8088 13.6495C16.7751 13.497 16.7288 13.3363 16.6728 13.1718V13.1718L16.6393 13.0757C16.6052 12.9808 16.5695 12.8898 16.534 12.8047V12.8047L16.5181 12.7665C16.5078 12.7421 16.4979 12.7196 16.4888 12.699V12.699L16.4816 12.6831C16.4774 12.6739 16.4745 12.6673 16.4725 12.6633C16.405 12.519 16.4999 12.3481 16.6444 12.3481V12.3481Z" fill="white"/>
</mask>
<g mask="url(#mask3)">
<path fill-rule="evenodd" clip-rule="evenodd" d="M16.1599 16.6151H25.8342V12.1457H16.1599V16.6151Z" fill="#5A78FF"/>
</g>
<mask id="mask4" mask-type="alpha" maskUnits="userSpaceOnUse" x="16" y="12" width="10" height="4">
<path fill-rule="evenodd" clip-rule="evenodd" d="M16.6536 12.3338L16.6562 12.3341C16.6595 12.3344 16.6635 12.3346 16.683 12.3356V12.3356L16.7089 12.3368C16.7269 12.3377 16.7464 12.3388 16.7676 12.3398V12.3398L16.8375 12.3433C16.9093 12.347 16.9868 12.3511 17.0686 12.3552V12.3552L17.3015 12.3673C17.5338 12.3794 17.7632 12.3919 17.9815 12.404V12.404L18.0813 12.4097C18.147 12.4135 18.2108 12.4172 18.2727 12.4207V12.4207L18.3694 12.4264C18.5904 12.4395 18.7787 12.4514 18.9277 12.4619V12.4619L19.0462 12.471C19.6955 12.525 20.6171 12.6663 21.3338 12.8102V12.8102L21.4549 12.8351C22.5782 13.071 23.5206 13.418 24.9765 14.0669V14.0669L24.9994 14.0771C25.1349 14.1375 25.4807 14.2923 25.4888 14.296V14.296L25.5126 14.3088C25.5959 14.3616 25.6335 14.4767 25.5974 14.5796V14.5796L25.586 14.6063C25.5392 14.6999 25.4366 14.7426 25.3456 14.7019V14.7019L25.3401 14.6995C25.2916 14.6779 24.9407 14.5205 24.8341 14.4729V14.4729L24.6823 14.4055C23.2832 13.7874 22.3727 13.4623 21.2657 13.2401V13.2401L21.1314 13.2137C20.4036 13.0729 19.5012 12.9396 18.9035 12.8976V12.8976L18.8378 12.8931C18.679 12.8824 18.4823 12.8704 18.253 12.8572V12.8572L18.1589 12.8516C18.0952 12.8479 18.0295 12.8441 17.962 12.8405V12.8405L17.7409 12.8282C17.5166 12.816 17.2837 12.8035 17.0505 12.7914V12.7914L17.0022 12.7891V12.7891L16.9551 12.7867L16.996 12.8983V12.8983L17.0357 13.0137L17.08 13.1501C17.1362 13.3311 17.1812 13.5084 17.2121 13.6787V13.6787L17.226 13.7603C17.2345 13.8141 17.2414 13.8669 17.2463 13.9187V13.9187L17.2506 13.9746C17.2648 14.2236 17.2175 14.565 17.1233 14.9858V14.9858L17.1012 15.0825C17.086 15.1475 17.0699 15.2137 17.0531 15.2809V15.2809H16.6491L16.6843 15.1436C16.707 15.0532 16.728 14.9649 16.7471 14.8793V14.8793L16.7646 14.7994C16.8431 14.4318 16.8784 14.1412 16.8607 13.9678V13.9678L16.8533 13.9027C16.8475 13.8586 16.8404 13.8131 16.8318 13.7661V13.7661L16.809 13.6518C16.7753 13.4973 16.729 13.3344 16.673 13.1679V13.1679L16.6395 13.0706C16.6054 12.9746 16.5697 12.8825 16.5342 12.7964V12.7964L16.5183 12.7576C16.508 12.7328 16.4981 12.7099 16.489 12.6894V12.6894L16.4818 12.6732C16.4776 12.6637 16.4747 12.657 16.4727 12.6531C16.4052 12.5068 16.5001 12.3335 16.6446 12.3338V12.3338H16.6536Z" fill="white"/>
</mask>
<g mask="url(#mask4)">
<path fill-rule="evenodd" clip-rule="evenodd" d="M16.249 15.5049H25.8341V12.0984H16.249V15.5049Z" fill="#2800FF"/>
</g>
<mask id="mask5" mask-type="alpha" maskUnits="userSpaceOnUse" x="15" y="12" width="2" height="4">
<path fill-rule="evenodd" clip-rule="evenodd" d="M15.6176 12.5709L15.6422 12.5728C15.6911 12.5801 15.7368 12.6092 15.7661 12.6575V12.6575L15.7778 12.677C15.7952 12.7061 15.8193 12.7484 15.8481 12.8021V12.8021L15.893 12.8874C15.9377 12.9746 15.9819 13.0668 16.0239 13.1629V13.1629L16.0715 13.2758C16.1475 13.4634 16.2066 13.6478 16.2437 13.8248V13.8248L16.2589 13.9041C16.277 14.0088 16.2862 14.1091 16.2862 14.2049V14.2049L16.2838 14.3072C16.271 14.5812 16.2078 14.8653 16.1101 15.1478V15.1478L16.081 15.2287C16.0515 15.3081 16.0208 15.3828 15.9903 15.4517V15.4517L15.9759 15.4834C15.9577 15.5231 15.9432 15.5529 15.9335 15.5717V15.5717L15.9189 15.5956C15.8656 15.6699 15.7687 15.6927 15.6904 15.645V15.645L15.6684 15.6292C15.5998 15.5714 15.5788 15.4664 15.6228 15.3815V15.3815L15.6346 15.3581L15.6453 15.3355C15.6527 15.3197 15.6608 15.3024 15.6691 15.2834V15.2834L15.6964 15.2204C15.7236 15.1557 15.7505 15.0859 15.7763 15.0121V15.0121L15.8068 14.9195C15.8843 14.6728 15.9298 14.4294 15.9298 14.2049V14.2049L15.9284 14.1504C15.9247 14.0761 15.9137 13.9957 15.8956 13.9104V13.9104L15.8743 13.8183C15.8347 13.6628 15.7755 13.4974 15.7017 13.3283V13.3283L15.6626 13.2415C15.6228 13.1558 15.5815 13.0737 15.5405 12.9972V12.9972L15.5216 12.963C15.5094 12.9411 15.498 12.921 15.4874 12.9025V12.9025L15.4792 12.8884C15.4744 12.8801 15.471 12.8743 15.469 12.871V12.871L15.4561 12.846C15.4192 12.7607 15.4445 12.6566 15.5195 12.603C15.5497 12.5811 15.5839 12.5709 15.6176 12.5709V12.5709Z" fill="white"/>
</mask>
<g mask="url(#mask5)">
<path fill-rule="evenodd" clip-rule="evenodd" d="M15.2241 15.9073H16.517V12.3672H15.2241V15.9073Z" fill="#5A78FF"/>
</g>
<mask id="mask6" mask-type="alpha" maskUnits="userSpaceOnUse" x="10" y="10" width="19" height="15">
<path fill-rule="evenodd" clip-rule="evenodd" d="M15.5687 11.3479C15.5687 11.3479 15.2259 11.3479 14.2027 11.4V11.4C13.1797 11.452 12.2695 11.8971 11.0528 12.8347V12.8347C9.83659 13.7724 10.0085 14.7113 10.0085 14.7113V14.7113C10.0085 14.7113 11.1432 15.0875 11.1432 15.291V15.291C11.1432 15.4945 10.1496 15.7356 10.1496 15.7356V15.7356C10.7502 16.4885 12.5368 17.194 13.1692 17.278V17.278C12.5168 17.4971 11.8505 17.9005 11.0528 18.5152V18.5152C9.83659 19.4528 10.0085 20.3918 10.0085 20.3918V20.3918C10.0085 20.3918 11.1432 20.7677 11.1432 20.9712V20.9712C11.1432 21.1747 10.1496 21.4158 10.1496 21.4158V21.4158C10.7897 22.2183 12.7757 22.9668 13.2777 22.9668V22.9668C13.7795 22.9668 14.1236 22.9809 14.7817 22.8536V22.8536C14.788 22.8481 14.8214 22.8515 14.879 22.8622V22.8622C14.8595 22.8786 14.8498 22.8883 14.8498 22.8883V22.8883C14.8498 22.8883 15.3216 23.9691 16.3417 24.1841V24.1841C17.2178 24.3683 17.7579 24.27 17.893 24.2384V24.2384C18.2579 24.2337 18.4508 24.1758 18.4508 24.1758V24.1758C18.4508 24.1758 18.496 23.7849 18.3081 23.3722V23.3722C19.0014 23.4056 19.7395 23.3894 20.4668 23.2814V23.2814C23.1962 22.8757 24.5427 22.2332 24.9835 22.1478V22.1478C25.1883 22.1084 25.8417 22.3422 26.498 22.576V22.576C27.2527 22.8455 28.0112 23.1147 28.0935 22.9668V22.9668C28.2467 22.6905 27.5405 22.0857 27.8698 21.2697V21.2697C28.1989 20.4533 27.4656 19.9151 27.8724 19.2634V19.2634C28.2791 18.6117 28.1973 17.6177 28.0935 17.5652V17.5652C27.981 17.5089 27.3236 17.7742 26.6331 18.0393V18.0393C25.9529 18.3004 25.2398 18.5616 24.9835 18.5152V18.5152C23.7061 18.2835 23.9406 18.1337 22.221 17.7526V17.7526C21.5337 17.6002 21.6294 17.6902 21.4777 17.5775V17.5775C21.4144 17.5305 21.3528 17.5091 21.2811 17.4666V17.4666C23.4687 17.0667 24.5892 16.5438 24.9835 16.4677V16.4677C25.1883 16.428 25.8417 16.6618 26.498 16.8958V16.8958C27.2527 17.165 28.0112 17.434 28.0935 17.2861V17.2861C28.2467 17.0101 27.5405 16.4053 27.8698 15.5892V15.5892C28.1989 14.7731 27.4656 14.2349 27.8724 13.5829V13.5829C28.2791 12.9312 28.1973 11.9372 28.0935 11.8851V11.8851C27.981 11.8287 27.3236 12.0938 26.6331 12.3588V12.3588C25.9529 12.6203 25.2398 12.8811 24.9835 12.8347V12.8347C23.7061 12.6033 23.9406 12.4533 22.221 12.0724V12.0724C21.5337 11.9197 21.6294 12.0098 21.4777 11.8971V11.8971C21.326 11.7841 21.1815 11.8185 20.8847 11.3479V11.3479C20.5877 10.8775 17.161 10.1545 16.9271 10.1545V10.1545C16.4592 10.1545 15.5687 11.3479 15.5687 11.3479V11.3479Z" fill="white"/>
</mask>
<g mask="url(#mask6)">
<path fill-rule="evenodd" clip-rule="evenodd" d="M16.0701 15.2809C16.0838 15.2446 16.0972 15.2075 16.1101 15.1695C16.2199 14.8473 16.2862 14.523 16.2862 14.2135C16.2862 14.0917 16.2717 13.9631 16.2436 13.8282C16.1992 13.6124 16.1229 13.3865 16.0238 13.1567C15.9679 13.0267 15.9082 12.9039 15.848 12.7911C15.812 12.7228 15.7833 12.6727 15.7663 12.6445C15.7121 12.554 15.6015 12.5295 15.5192 12.5892C15.4372 12.649 15.4146 12.7703 15.469 12.8608C15.4721 12.8658 15.4782 12.8767 15.4874 12.8929C15.5034 12.9205 15.521 12.9529 15.5402 12.9889C15.5951 13.0922 15.6503 13.2054 15.7019 13.3244C15.7904 13.5303 15.8577 13.7306 15.8958 13.9148C15.9182 14.0228 15.9298 14.1233 15.9298 14.2135C15.9298 14.4695 15.8722 14.7499 15.7762 15.0314C15.7458 15.1212 15.7132 15.2047 15.6806 15.2809H16.0701Z" fill="#FEC1EE"/>
</g>
<mask id="mask7" mask-type="alpha" maskUnits="userSpaceOnUse" x="15" y="12" width="2" height="4">
<path fill-rule="evenodd" clip-rule="evenodd" d="M15.5192 12.5891C15.6015 12.5294 15.7121 12.5542 15.7663 12.6445C15.7834 12.6726 15.8117 12.723 15.848 12.7911C15.9082 12.9038 15.9679 13.0269 16.0239 13.1569C16.123 13.3864 16.1992 13.6126 16.2436 13.8281C16.2715 13.963 16.2862 14.0919 16.2862 14.2135C16.2862 14.5229 16.2199 14.8472 16.1101 15.1694C16.0969 15.2075 16.0838 15.2448 16.0701 15.2808V15.2808H15.6803C15.7129 15.2049 15.7455 15.1211 15.7763 15.0316C15.8722 14.7499 15.9298 14.4694 15.9298 14.2135C15.9298 14.1232 15.9182 14.0228 15.8959 13.9147C15.8577 13.7306 15.7902 13.5302 15.7016 13.3246C15.6504 13.2056 15.5952 13.0924 15.5402 12.9888C15.521 12.9528 15.5034 12.9205 15.4874 12.8928C15.4782 12.8767 15.4719 12.8657 15.469 12.8607C15.4146 12.7705 15.4372 12.6489 15.5192 12.5891Z" fill="white"/>
</mask>
<g mask="url(#mask7)">
<path fill-rule="evenodd" clip-rule="evenodd" d="M10.0077 24.4789H28.1968V10.1208H10.0077V24.4789Z" fill="#2800FF"/>
</g>
<mask id="mask8" mask-type="alpha" maskUnits="userSpaceOnUse" x="10" y="20" width="19" height="5">
<path fill-rule="evenodd" clip-rule="evenodd" d="M27.91 20.4556C27.968 20.702 27.9922 20.9667 27.87 21.2696V21.2696L27.8429 21.3432C27.5827 22.1221 28.2423 22.6988 28.0937 22.9667V22.9667L28.0847 22.9787C27.9668 23.0988 27.2307 22.8375 26.4982 22.5759V22.5759L26.4254 22.55C25.7941 22.3252 25.1809 22.1099 24.9837 22.1478V22.1478L24.9609 22.1525C24.4977 22.2545 23.1509 22.8824 20.467 23.2814V23.2814L20.2684 23.3086C19.6059 23.3919 18.9386 23.4025 18.3083 23.3722V23.3722L18.3297 23.4216C18.4927 23.8155 18.451 24.1757 18.451 24.1757V24.1757L18.4439 24.1777C18.406 24.1879 18.2175 24.2342 17.8932 24.2383V24.2383L17.8784 24.2417C17.7218 24.2761 17.1888 24.3621 16.3419 24.1841V24.1841L16.2683 24.1668C15.2991 23.917 14.85 22.8882 14.85 22.8882V22.8882C14.8555 22.883 14.8646 22.8744 14.8792 22.8621V22.8621L14.8525 22.8574C14.8113 22.8505 14.7872 22.8489 14.782 22.8535V22.8535L14.669 22.8745C14.0828 22.9792 13.7502 22.9667 13.278 22.9667V22.9667L13.2415 22.9656C12.6864 22.9327 10.7753 22.2 10.1499 21.4157V21.4157L10.1536 21.4148C10.2168 21.3992 11.0683 21.1862 11.1388 20.9957L18.6437 20.9959L18.6429 20.4559L27.91 20.4556Z" fill="white"/>
</mask>
<g mask="url(#mask8)">
<path fill-rule="evenodd" clip-rule="evenodd" d="M28.1838 24.3147H9.99449V20.9959H18.6434L18.6426 20.4558H28.1838V24.3147Z" fill="#5A78FF"/>
</g>
<mask id="mask9" mask-type="alpha" maskUnits="userSpaceOnUse" x="16" y="18" width="10" height="5">
<path fill-rule="evenodd" clip-rule="evenodd" d="M16.6444 18.0952L16.6488 18.0952V18.0952L16.6534 18.0954L16.6589 18.0957C16.6623 18.0958 16.6681 18.0961 16.6828 18.0967V18.0967L16.7087 18.098C16.7267 18.0989 16.7462 18.0998 16.7674 18.1009V18.1009L16.8373 18.1044C16.9091 18.108 16.9866 18.112 17.0684 18.1163V18.1163L17.3013 18.1282C17.5336 18.1401 17.763 18.1524 17.9813 18.1646V18.1646L18.0811 18.1701C18.1468 18.1738 18.2106 18.1773 18.2725 18.181V18.181L18.3692 18.1866C18.5902 18.1995 18.7785 18.2112 18.9275 18.2214V18.2214L19.046 18.2304C19.6954 18.284 20.6169 18.4234 21.3336 18.5653V18.5653L21.4547 18.5898C22.578 18.8226 23.5204 19.1655 24.9763 19.8061V19.8061L24.9992 19.8161C25.1347 19.8759 25.4805 20.0286 25.4886 20.0323V20.0323L25.5124 20.0449C25.5957 20.0969 25.6333 20.2108 25.5972 20.3122V20.3122L25.5858 20.3387C25.539 20.4312 25.4364 20.4732 25.3454 20.433V20.433L25.3399 20.4306C25.2914 20.4092 24.9405 20.2537 24.8339 20.2068V20.2068L24.6821 20.1403C23.283 19.5302 22.3725 19.2092 21.2655 18.99V18.99L21.1312 18.9639C20.4034 18.8248 19.501 18.6932 18.9033 18.6519V18.6519L18.8376 18.6475C18.6788 18.6369 18.4821 18.6247 18.2528 18.6115V18.6115L18.1587 18.6062C18.095 18.6026 18.0293 18.5989 17.9618 18.5953V18.5953L17.7407 18.5833C17.5164 18.5712 17.2835 18.5589 17.0503 18.5468V18.5468L17.002 18.5444V18.5444L16.9549 18.5418L16.9958 18.6523V18.6523L17.0355 18.7662L17.0798 18.9009C17.136 19.0796 17.181 19.2548 17.2119 19.4226V19.4226L17.2258 19.5034C17.2343 19.5566 17.2412 19.6087 17.2461 19.6595V19.6595L17.2504 19.7146C17.2646 19.9605 17.2173 20.2975 17.1231 20.7135V20.7135L17.0879 20.8639C17.0633 20.9655 17.0363 21.07 17.0074 21.1766V21.1766L16.9673 21.3218C16.9266 21.4663 16.8842 21.6079 16.8418 21.7435V21.7435L16.8228 21.8047C16.8103 21.8441 16.7984 21.8809 16.7872 21.9146V21.9146L16.7791 21.9399V21.9399L16.7719 21.9616L16.7684 21.9718V21.9718L16.7661 21.9786L16.7552 22.0052C16.7099 22.0987 16.608 22.1428 16.5164 22.1043V22.1043L16.4924 22.0922C16.4082 22.0419 16.3684 21.9289 16.4031 21.827V21.827L16.4049 21.8215V21.8215L16.4081 21.8121L16.4149 21.7914V21.7914L16.4226 21.7675L16.4392 21.7166C16.4505 21.6811 16.4626 21.6427 16.4754 21.6018V21.6018L16.5165 21.4686C16.5575 21.3335 16.5978 21.1934 16.636 21.0521V21.0521L16.6665 20.9378C16.6961 20.8244 16.7231 20.7141 16.7469 20.6081V20.6081L16.7644 20.5292C16.8429 20.1665 16.8782 19.8794 16.8605 19.7083V19.7083L16.8531 19.644C16.8474 19.6003 16.8402 19.5553 16.8316 19.5092V19.5092L16.8088 19.3964C16.7751 19.2438 16.7288 19.0831 16.6728 18.9188V18.9188L16.6393 18.8226C16.6052 18.7277 16.5695 18.6368 16.534 18.5515V18.5515L16.5181 18.5133C16.5078 18.4888 16.4979 18.4663 16.4888 18.4458V18.4458L16.4816 18.43C16.4774 18.4207 16.4745 18.4141 16.4725 18.4103C16.405 18.266 16.4999 18.0952 16.6444 18.0952V18.0952Z" fill="white"/>
</mask>
<g mask="url(#mask9)">
<path fill-rule="evenodd" clip-rule="evenodd" d="M16.1599 22.3236H25.8342V17.8542H16.1599V22.3236Z" fill="#FEC1EE"/>
</g>
<mask id="mask10" mask-type="alpha" maskUnits="userSpaceOnUse" x="16" y="18" width="10" height="3">
<path fill-rule="evenodd" clip-rule="evenodd" d="M16.6536 18.0864L16.659 18.0867C16.6625 18.0869 16.6683 18.0872 16.683 18.088V18.088L16.7089 18.0894C16.7269 18.0903 16.7464 18.0913 16.7676 18.0922V18.0922L16.8375 18.0957C16.9093 18.0994 16.9868 18.1033 17.0686 18.1076V18.1076L17.3015 18.1194C17.5338 18.1314 17.7632 18.1437 17.9815 18.1558V18.1558L18.0813 18.1613C18.147 18.165 18.2108 18.1686 18.2727 18.1723V18.1723L18.3694 18.1779C18.5904 18.1908 18.7787 18.2024 18.9277 18.2127V18.2127L19.0462 18.2217C19.6955 18.275 20.6171 18.4144 21.3338 18.5566V18.5566L21.4549 18.5811C22.5782 18.8141 23.5206 19.1565 24.9765 19.7974V19.7974L24.9994 19.8074C25.1349 19.8669 25.4807 20.0199 25.4888 20.0236V20.0236L25.5126 20.0362C25.5959 20.0882 25.6335 20.2018 25.5974 20.3032V20.3032L25.586 20.3298C25.5392 20.4224 25.4366 20.4645 25.3456 20.4243V20.4243L25.3401 20.4219C25.2916 20.4003 24.9407 20.2452 24.8341 20.1981V20.1981L24.6823 20.1316C23.2832 19.5215 22.3727 19.2004 21.2657 18.981V18.981L21.1314 18.9549C20.4036 18.816 19.5012 18.6844 18.9035 18.6429V18.6429L18.8378 18.6385C18.679 18.628 18.4823 18.616 18.253 18.6027V18.6027L18.1589 18.5974C18.0952 18.5939 18.0295 18.5902 17.962 18.5866V18.5866L17.7409 18.5744C17.5166 18.5622 17.2837 18.55 17.0505 18.5383V18.5383L17.0022 18.5357V18.5357L16.9551 18.5333L16.996 18.6436V18.6436L17.0357 18.7574L17.08 18.8922C17.1362 19.071 17.1812 19.2458 17.2121 19.4139V19.4139L17.226 19.4945C17.2345 19.5478 17.2414 19.6 17.2463 19.651V19.651L17.2506 19.7061C17.2648 19.952 17.2175 20.2888 17.1233 20.7045V20.7045L17.1012 20.7999C17.086 20.8642 17.0699 20.9296 17.0531 20.9959V20.9959H16.6491L16.6843 20.8604C16.707 20.7711 16.728 20.6839 16.7471 20.5994V20.5994L16.7646 20.5205C16.8431 20.1578 16.8784 19.8705 16.8607 19.6993V19.6993L16.8533 19.6351C16.8475 19.5916 16.8404 19.5467 16.8318 19.5005V19.5005L16.809 19.3877C16.7753 19.2351 16.729 19.0743 16.673 18.9101V18.9101L16.6395 18.814C16.6054 18.7191 16.5697 18.6281 16.5342 18.543V18.543L16.5183 18.5048C16.508 18.4802 16.4981 18.4577 16.489 18.4373V18.4373L16.4818 18.4213C16.4776 18.412 16.4747 18.4054 16.4727 18.4016C16.4052 18.2573 16.5001 18.0862 16.6446 18.0864V18.0864H16.6536Z" fill="white"/>
</mask>
<g mask="url(#mask10)">
<path fill-rule="evenodd" clip-rule="evenodd" d="M16.249 21.2172H25.8341V17.8543H16.249V21.2172Z" fill="#FF7698"/>
</g>
<path fill-rule="evenodd" clip-rule="evenodd" d="M15.469 18.6178C15.4721 18.6227 15.4782 18.6334 15.4874 18.6496C15.5034 18.677 15.521 18.7085 15.5402 18.744C15.5952 18.846 15.6504 18.958 15.7019 19.0751C15.7905 19.2781 15.8577 19.4756 15.8959 19.6572C15.9182 19.7641 15.9298 19.8627 15.9298 19.952C15.9298 20.2043 15.8722 20.4811 15.7763 20.7589C15.7421 20.8573 15.7056 20.9486 15.6693 21.0305C15.6567 21.0587 15.6448 21.0837 15.6346 21.1051C15.6285 21.1174 15.6246 21.1252 15.6228 21.1286C15.5744 21.2215 15.6049 21.3394 15.6906 21.3918C15.7765 21.4443 15.8851 21.4114 15.9337 21.3185C15.9455 21.2953 15.9655 21.2544 15.9902 21.1985C16.0312 21.1067 16.072 21.0047 16.1101 20.8946C16.2199 20.5768 16.2862 20.2572 16.2862 19.952C16.2862 19.832 16.2717 19.7049 16.2436 19.5718C16.1992 19.3592 16.1229 19.1362 16.0239 18.9097C15.9679 18.7816 15.9082 18.6603 15.848 18.5491C15.812 18.4818 15.7834 18.4325 15.7663 18.4043C15.7121 18.3154 15.6015 18.2911 15.5192 18.3498C15.4372 18.4088 15.4146 18.5288 15.469 18.6178" fill="#FEC1EE"/>
<path fill-rule="evenodd" clip-rule="evenodd" d="M16.0701 20.996C16.0838 20.9602 16.0972 20.9237 16.1101 20.8862C16.2199 20.5681 16.2862 20.2485 16.2862 19.9433C16.2862 19.8233 16.2717 19.6965 16.2436 19.5632C16.1992 19.3505 16.123 19.1277 16.0239 18.901C15.9679 18.7729 15.9082 18.6516 15.848 18.5405C15.812 18.4731 15.7834 18.4238 15.7663 18.3959C15.7121 18.3067 15.6015 18.2824 15.5192 18.3414C15.4372 18.4001 15.4146 18.5201 15.469 18.6093C15.4721 18.614 15.4782 18.625 15.4874 18.6409C15.5034 18.6683 15.521 18.6999 15.5402 18.7353C15.5952 18.8376 15.6504 18.9493 15.7019 19.0667C15.7905 19.2694 15.8577 19.4672 15.8959 19.6487C15.9182 19.7554 15.9298 19.8543 15.9298 19.9433C15.9298 20.1958 15.8722 20.4724 15.7763 20.7502C15.7458 20.8384 15.7132 20.9209 15.6806 20.996H16.0701Z" fill="#FEC1EE"/>
<mask id="mask11" mask-type="alpha" maskUnits="userSpaceOnUse" x="15" y="18" width="2" height="3">
<path fill-rule="evenodd" clip-rule="evenodd" d="M15.5192 18.3414C15.6015 18.2824 15.7121 18.3067 15.7663 18.3959C15.7834 18.4238 15.8117 18.4731 15.848 18.5405C15.9082 18.6516 15.9679 18.7729 16.0239 18.901C16.123 19.1277 16.1992 19.3505 16.2436 19.5632C16.2715 19.6965 16.2862 19.8233 16.2862 19.9433C16.2862 20.2485 16.2199 20.5681 16.1101 20.8862C16.0969 20.9237 16.0838 20.9602 16.0701 20.996V20.996H15.6803C15.7129 20.9209 15.7455 20.8384 15.7763 20.7502C15.8722 20.4724 15.9298 20.1958 15.9298 19.9433C15.9298 19.8543 15.9182 19.7554 15.8959 19.6487C15.8577 19.4672 15.7902 19.2694 15.7016 19.0667C15.6504 18.9493 15.5952 18.8376 15.5402 18.7353C15.521 18.6999 15.5034 18.6683 15.4874 18.6409C15.4782 18.625 15.4719 18.614 15.469 18.6093C15.4146 18.5201 15.4372 18.4001 15.5192 18.3414Z" fill="white"/>
</mask>
<g mask="url(#mask11)">
<path fill-rule="evenodd" clip-rule="evenodd" d="M10.0077 24.3148H28.1968V10.1545H10.0077V24.3148Z" fill="#FF7698"/>
</g>
<path fill-rule="evenodd" clip-rule="evenodd" d="M12.3146 13.8468C12.3146 13.4145 12.6676 13.0641 13.1031 13.0641C13.5387 13.0641 13.8917 13.4145 13.8917 13.8468C13.8917 14.2791 13.5387 14.6295 13.1031 14.6295C12.6676 14.6295 12.3146 14.2791 12.3146 13.8468" fill="black"/>
<path fill-rule="evenodd" clip-rule="evenodd" d="M12.3155 13.7843V13.7747C12.3155 13.2952 12.6958 12.9064 13.165 12.9064C13.6344 12.9064 14.0148 13.2952 14.0148 13.7747C14.0148 14.2542 13.6344 14.6432 13.165 14.6432C12.7447 14.6432 12.3428 14.3768 12.3276 13.9213C12.3378 14.2349 12.6517 14.4621 12.9702 14.4621C13.3319 14.4621 13.6252 14.1626 13.6252 13.793C13.6252 13.4233 13.3319 13.1235 12.9702 13.1235C12.6115 13.1235 12.32 13.4186 12.3155 13.7843" fill="white"/>
<path fill-rule="evenodd" clip-rule="evenodd" d="M12.6548 14.2412C12.5352 14.2412 12.4382 14.1447 12.4382 14.026C12.4382 13.9073 12.5352 13.811 12.6548 13.811C12.7744 13.811 12.8711 13.9073 12.8711 14.026C12.8711 14.1447 12.7744 14.2412 12.6548 14.2412" fill="white"/>
<path fill-rule="evenodd" clip-rule="evenodd" d="M12.3146 19.5684C12.3146 19.1361 12.6676 18.7858 13.1031 18.7858C13.5387 18.7858 13.8917 19.1361 13.8917 19.5684C13.8917 20.0008 13.5387 20.3511 13.1031 20.3511C12.6676 20.3511 12.3146 20.0008 12.3146 19.5684" fill="black"/>
<path fill-rule="evenodd" clip-rule="evenodd" d="M12.3146 19.5061V19.4964C12.3146 19.0169 12.6949 18.6282 13.1641 18.6282C13.6336 18.6282 14.0139 19.0169 14.0139 19.4964C14.0139 19.976 13.6336 20.3649 13.1641 20.3649C12.7438 20.3649 12.3419 20.0986 12.3267 19.6431C12.337 19.9566 12.6508 20.1839 12.9694 20.1839C13.331 20.1839 13.6244 19.8844 13.6244 19.5147C13.6244 19.145 13.331 18.8452 12.9694 18.8452C12.6106 18.8452 12.3191 19.1403 12.3146 19.5061" fill="white"/>
<path fill-rule="evenodd" clip-rule="evenodd" d="M12.6548 19.963C12.5352 19.963 12.4382 19.8665 12.4382 19.7478C12.4382 19.629 12.5352 19.5328 12.6548 19.5328C12.7744 19.5328 12.8711 19.629 12.8711 19.7478C12.8711 19.8665 12.7744 19.963 12.6548 19.963" fill="white"/>
</svg>
