<svg width="146.4" height="32" viewBox="0 0 183 40" fill="none" xmlns="http://www.w3.org/2000/svg">
<path d="M0 6C0 2.68629 2.68629 0 6 0H177C180.314 0 183 2.68629 183 6V34C183 37.3137 180.314 40 177 40H6C2.6863 40 0 37.3137 0 34V6Z" fill="url(#paint0_linear)"/>
<path d="M50.4943 25C53.5966 25 55.4759 23.081 55.4759 19.8991C55.4759 16.7273 53.5966 14.8182 50.5241 14.8182H46.8849V25H50.4943ZM49.0376 23.1555V16.6626H50.4098C52.3189 16.6626 53.3281 17.6371 53.3281 19.8991C53.3281 22.1712 52.3189 23.1555 50.4048 23.1555H49.0376ZM60.5108 25.1491C62.4 25.1491 63.6728 24.2294 63.9711 22.8125L62.0123 22.6832C61.7985 23.2649 61.2516 23.5682 60.5456 23.5682C59.4867 23.5682 58.8155 22.8672 58.8155 21.7287V21.7237H64.0158V21.142C64.0158 18.5469 62.4448 17.2642 60.4263 17.2642C58.1792 17.2642 56.7225 18.8601 56.7225 21.2166C56.7225 23.6378 58.1593 25.1491 60.5108 25.1491ZM58.8155 20.4112C58.8603 19.5412 59.5215 18.8452 60.4611 18.8452C61.3809 18.8452 62.0172 19.5014 62.0222 20.4112H58.8155ZM65.3979 27.8636H67.5158V23.777H67.5804C67.8738 24.4134 68.5151 25.1243 69.748 25.1243C71.4881 25.1243 72.8453 23.7472 72.8453 21.1918C72.8453 18.5668 71.4284 17.2642 69.753 17.2642C68.4753 17.2642 67.8638 18.0249 67.5804 18.6463H67.486V17.3636H65.3979V27.8636ZM67.4711 21.1818C67.4711 19.8196 68.0478 18.9496 69.0769 18.9496C70.1259 18.9496 70.6827 19.8594 70.6827 21.1818C70.6827 22.5142 70.1159 23.4389 69.0769 23.4389C68.0577 23.4389 67.4711 22.544 67.4711 21.1818ZM76.3752 14.8182H74.2573V25H76.3752V14.8182ZM81.522 25.1491C83.8388 25.1491 85.2805 23.5632 85.2805 21.2116C85.2805 18.8452 83.8388 17.2642 81.522 17.2642C79.2053 17.2642 77.7635 18.8452 77.7635 21.2116C77.7635 23.5632 79.2053 25.1491 81.522 25.1491ZM81.532 23.5085C80.4631 23.5085 79.9162 22.5291 79.9162 21.1967C79.9162 19.8643 80.4631 18.88 81.532 18.88C82.581 18.88 83.1278 19.8643 83.1278 21.1967C83.1278 22.5291 82.581 23.5085 81.532 23.5085ZM87.7054 27.8636C89.2814 27.8636 90.1167 27.0582 90.5492 25.8253L93.5172 17.3736L91.275 17.3636L89.6792 22.9716H89.5996L88.0186 17.3636H85.7914L88.5307 25.2188L88.4064 25.5419C88.128 26.2578 87.5961 26.2926 86.8503 26.0639L86.373 27.6449C86.6763 27.7741 87.1685 27.8636 87.7054 27.8636ZM101.292 25.1491C103.608 25.1491 105.05 23.5632 105.05 21.2116C105.05 18.8452 103.608 17.2642 101.292 17.2642C98.9748 17.2642 97.533 18.8452 97.533 21.2116C97.533 23.5632 98.9748 25.1491 101.292 25.1491ZM101.301 23.5085C100.233 23.5085 99.6857 22.5291 99.6857 21.1967C99.6857 19.8643 100.233 18.88 101.301 18.88C102.35 18.88 102.897 19.8643 102.897 21.1967C102.897 22.5291 102.35 23.5085 101.301 23.5085ZM108.545 20.5852C108.55 19.6009 109.137 19.0241 109.992 19.0241C110.842 19.0241 111.354 19.581 111.349 20.5156V25H113.467V20.1378C113.467 18.358 112.423 17.2642 110.832 17.2642C109.699 17.2642 108.878 17.821 108.535 18.7109H108.446V17.3636H106.427V25H108.545V20.5852ZM118.416 25H120.569V21.3906H122.14L124.069 25H126.445L124.283 21.0426C125.441 20.5455 126.082 19.5362 126.082 18.1442C126.082 16.1207 124.745 14.8182 122.433 14.8182H118.416V25ZM120.569 19.6605V16.5781H122.021C123.263 16.5781 123.865 17.13 123.865 18.1442C123.865 19.1534 123.263 19.6605 122.031 19.6605H120.569ZM129.741 25.1442C130.87 25.1442 131.601 24.652 131.974 23.9411H132.033V25H134.042V19.8494C134.042 18.0298 132.501 17.2642 130.8 17.2642C128.971 17.2642 127.768 18.1392 127.474 19.5312L129.433 19.6903C129.577 19.1832 130.03 18.8104 130.79 18.8104C131.511 18.8104 131.924 19.1733 131.924 19.7997V19.8295C131.924 20.3217 131.402 20.3864 130.075 20.5156C128.563 20.6548 127.206 21.1619 127.206 22.8672C127.206 24.3786 128.285 25.1442 129.741 25.1442ZM130.348 23.6825C129.697 23.6825 129.229 23.3793 129.229 22.7976C129.229 22.201 129.722 21.9077 130.467 21.8033C130.93 21.7386 131.685 21.6293 131.939 21.4602V22.2706C131.939 23.071 131.278 23.6825 130.348 23.6825ZM135.685 25H137.803V17.3636H135.685V25ZM136.749 16.3793C137.38 16.3793 137.897 15.897 137.897 15.3054C137.897 14.7188 137.38 14.2365 136.749 14.2365C136.123 14.2365 135.605 14.7188 135.605 15.3054C135.605 15.897 136.123 16.3793 136.749 16.3793ZM141.617 14.8182H139.499V25H141.617V14.8182ZM144.82 25H147.058L148.37 20.1974H148.464L149.777 25H152.019L154.092 17.3636H151.955L150.791 22.4645H150.727L149.474 17.3636H147.371L146.138 22.4943H146.068L144.885 17.3636H142.742L144.82 25ZM157.4 25.1442C158.528 25.1442 159.259 24.652 159.632 23.9411H159.692V25H161.7V19.8494C161.7 18.0298 160.159 17.2642 158.459 17.2642C156.629 17.2642 155.426 18.1392 155.133 19.5312L157.091 19.6903C157.236 19.1832 157.688 18.8104 158.449 18.8104C159.17 18.8104 159.582 19.1733 159.582 19.7997V19.8295C159.582 20.3217 159.06 20.3864 157.733 20.5156C156.221 20.6548 154.864 21.1619 154.864 22.8672C154.864 24.3786 155.943 25.1442 157.4 25.1442ZM158.006 23.6825C157.355 23.6825 156.888 23.3793 156.888 22.7976C156.888 22.201 157.38 21.9077 158.126 21.8033C158.588 21.7386 159.344 21.6293 159.597 21.4602V22.2706C159.597 23.071 158.936 23.6825 158.006 23.6825ZM164.377 27.8636C165.953 27.8636 166.789 27.0582 167.221 25.8253L170.189 17.3736L167.947 17.3636L166.351 22.9716H166.271L164.691 17.3636H162.463L165.203 25.2188L165.078 25.5419C164.8 26.2578 164.268 26.2926 163.522 26.0639L163.045 27.6449C163.348 27.7741 163.84 27.8636 164.377 27.8636Z" fill="white"/>
<path fill-rule="evenodd" clip-rule="evenodd" d="M13.5541 14.1054C15.6145 10.4636 19.5162 8 23.9999 8C30.6278 8 36.0008 13.3731 36.0005 19.9998C35.9993 21.279 35.793 22.5497 35.3895 23.7635H12.6099C12.4078 23.1534 12.2612 22.5205 12.1589 21.8709L12.3711 22.8791H29.0645C30.1282 22.8791 31.0066 22.3345 31.4148 21.4216C31.8583 20.4282 31.6707 19.3914 31.0183 18.4895C30.3127 17.5144 29.129 16.1456 28.3092 15.5255C26.7988 14.3821 24.8793 14.2143 23.3176 14.1623L22.8693 14.1457C22.8236 14.1438 22.7802 14.1419 22.7382 14.1401C22.1136 14.1134 21.7736 14.0989 18.3008 14.0989V14.1001H18.3001C18.3001 14.1001 15.1642 14.102 13.5541 14.1054ZM12.0259 19.4837C12.043 19.0795 12.0802 18.6763 12.1373 18.2758H21.7098V17.0597H12.3778C12.377 17.0639 12.3758 17.0681 12.3746 17.0723C12.3737 17.0756 12.3727 17.079 12.372 17.0823L12.1582 18.1375C12.3117 17.1549 12.5807 16.2114 12.955 15.3228C14.7534 15.318 16.5998 15.3137 18.2984 15.3137C21.4777 15.3137 22.0194 15.3269 22.8181 15.3598C23.0353 15.369 23.2465 15.3746 23.4535 15.38C25.5293 15.4347 27.1708 15.4779 30.0019 19.1376C30.088 19.2473 30.1735 19.3594 30.2371 19.4837H12.0259ZM13.5103 14.1815C13.3054 14.5504 13.12 14.9313 12.955 15.3228C12.9518 15.3228 12.9486 15.3228 12.9454 15.3228C13.1113 14.9297 13.3038 14.552 13.5103 14.1815ZM13.5514 14.1082C13.5376 14.1325 13.5239 14.157 13.5103 14.1815C13.5239 14.157 13.5376 14.1326 13.5514 14.1082ZM12.0353 20.701H30.3806C30.2433 21.2328 29.8207 21.6615 29.0656 21.6615H12.1284C12.0847 21.3456 12.0545 21.0255 12.0353 20.701ZM12.617 23.7797C12.7548 24.1874 12.9134 24.5877 13.0923 24.979H34.9097C33.017 29.1183 28.8503 32 24.0011 32C18.6958 32 14.203 28.5534 12.617 23.7797ZM12.0102 19.775C12.0138 19.7224 12.0174 19.6698 12.0192 19.6169V20.3799C12.0175 20.3262 12.0138 20.2729 12.0101 20.2196C12.0051 20.1464 12 20.073 12 19.9983C12 19.9233 12.0051 19.8492 12.0102 19.775Z" fill="white"/>
<path fill-rule="evenodd" clip-rule="evenodd" d="M13.5541 14.1054C15.6145 10.4636 19.5162 8 23.9999 8C30.6278 8 36.0008 13.3731 36.0005 19.9998C35.9993 21.279 35.793 22.5497 35.3895 23.7635H12.6099C12.4078 23.1534 12.2612 22.5205 12.1589 21.8709L12.3711 22.8791H29.0645C30.1282 22.8791 31.0066 22.3345 31.4148 21.4216C31.8583 20.4282 31.6707 19.3914 31.0183 18.4895C30.3127 17.5144 29.129 16.1456 28.3092 15.5255C26.7988 14.3821 24.8793 14.2143 23.3176 14.1623L22.8693 14.1457C22.8236 14.1438 22.7802 14.1419 22.7382 14.1401C22.1136 14.1134 21.7736 14.0989 18.3008 14.0989V14.1001H18.3001C18.3001 14.1001 15.1642 14.102 13.5541 14.1054ZM12.0259 19.4837C12.043 19.0795 12.0802 18.6763 12.1373 18.2758H21.7098V17.0597H12.3778C12.377 17.0639 12.3758 17.0681 12.3746 17.0723C12.3737 17.0756 12.3727 17.079 12.372 17.0823L12.1582 18.1375C12.3117 17.1549 12.5807 16.2114 12.955 15.3228C14.7534 15.318 16.5998 15.3137 18.2984 15.3137C21.4777 15.3137 22.0194 15.3269 22.8181 15.3598C23.0353 15.369 23.2465 15.3746 23.4535 15.38C25.5293 15.4347 27.1708 15.4779 30.0019 19.1376C30.088 19.2473 30.1735 19.3594 30.2371 19.4837H12.0259ZM13.5103 14.1815C13.3054 14.5504 13.12 14.9313 12.955 15.3228C12.9518 15.3228 12.9486 15.3228 12.9454 15.3228C13.1113 14.9297 13.3038 14.552 13.5103 14.1815ZM13.5514 14.1082C13.5376 14.1325 13.5239 14.157 13.5103 14.1815C13.5239 14.157 13.5376 14.1326 13.5514 14.1082ZM12.0353 20.701H30.3806C30.2433 21.2328 29.8207 21.6615 29.0656 21.6615H12.1284C12.0847 21.3456 12.0545 21.0255 12.0353 20.701ZM12.617 23.7797C12.7548 24.1874 12.9134 24.5877 13.0923 24.979H34.9097C33.017 29.1183 28.8503 32 24.0011 32C18.6958 32 14.203 28.5534 12.617 23.7797ZM12.0102 19.775C12.0138 19.7224 12.0174 19.6698 12.0192 19.6169V20.3799C12.0175 20.3262 12.0138 20.2729 12.0101 20.2196C12.0051 20.1464 12 20.073 12 19.9983C12 19.9233 12.0051 19.8492 12.0102 19.775Z" fill="url(#paint1_linear)" fill-opacity="0.1"/>
<defs>
<linearGradient id="paint0_linear" x1="181" y1="-9.33524e-07" x2="26" y2="37.5" gradientUnits="userSpaceOnUse">
<stop stop-color="#B63BCE"/>
<stop offset="1" stop-color="#5016A1"/>
</linearGradient>
<linearGradient id="paint1_linear" x1="19.5" y1="32" x2="19.5" y2="8" gradientUnits="userSpaceOnUse">
<stop stop-color="#5B1BA7"/>
<stop offset="1" stop-color="white" stop-opacity="0"/>
</linearGradient>
</defs>
</svg>
