<svg xmlns="http://www.w3.org/2000/svg" viewBox="0 0 495 383"><g><path d="m 229 363 c 63.5635 -11.2286 116.0633 -20.5203 116.6663 -20.6482 l 1.0963 -0.2325 l -60.0102 -71.3803 c -33.0056 -39.2592 -60.0102 -71.5325 -60.0102 -71.7185 c 0 -0.3522 61.9656 -170.9921 62.314 -171.5992 c 0.1165 -0.203 42.286 72.6015 102.2216 176.4828 c 56.1128 97.2556 102.3752 177.4431 102.8051 178.1945 l 0.7818 1.3662 l -190.7174 -0.0246 l -190.7174 -0.0245 l 115.57 -20.4157 z m -228.8822 -21.7675 c 0 -0.1005 28.2765 -49.1863 62.8367 -109.0796 l 62.8367 -108.8969 l 73.2289 -61.4539 c 40.2759 -33.7996 73.3374 -61.4952 73.4699 -61.5457 c 0.1326 -0.0505 -0.3973 1.283 -1.1774 2.9633 c -0.7801 1.6803 -36.5624 78.4297 -79.5163 170.5541 l -78.0979 167.4989 l -56.7903 0.0712 c -31.2347 0.0392 -56.7903 -0.011 -56.7903 -0.1114 z" style="fill:#0089d6;fill-opacity:1;stroke-width:0.28222221" /></g></svg>
