<svg xmlns="http://www.w3.org/2000/svg" viewBox="36 1 64 135"><g fill="#2E59C7"><path d="M36 57H67.5966L83 67H51.7983L36 57Z"/><path opacity="0.85" d="M39 42H68.5798L83 67H53.7899L39 42Z"/><path opacity="0.75" d="M43 27H69.8908L83 67H56.4454L43 27Z"/><path opacity="0.5" d="M48 13H71.5294L83 67H59.7647L48 13Z"/><path opacity="0.25" d="M53 1H73.1681L83 67H63.084L53 1Z"/><path d="M100 80H68.4034L53 70H84.2017L100 80Z"/><path opacity="0.85" d="M97 95H67.4202L53 70H82.2101L97 95Z"/><path opacity="0.75" d="M93 110H66.1092L53 70H79.5546L93 110Z"/><path opacity="0.5" d="M88 124H64.4706L53 70H76.2353L88 124Z"/><path opacity="0.25" d="M83 136H62.8319L53 70H72.916L83 136Z"/></g></svg>
