<svg xmlns="http://www.w3.org/2000/svg" viewBox="0 0 31.16 31.19"><defs><radialGradient id="paint0_radial_261_941" cx="0" cy="0" r="1" gradientUnits="userSpaceOnUse" gradientTransform="translate(16.969 3.8468) rotate(90) scale(31.1913 35.8927)"><stop stop-color="#303030"></stop><stop offset="1" stop-color="#000000"></stop></radialGradient></defs><path fill="url(#paint0_radial_261_941)" fill-rule="evenodd" clip-rule="evenodd" d="M9.0111 5.9081C9.4999 6.1148 12.9165 7.5594 13.3558 7.7501 13.3839 7.7623 13.4165 7.7756 13.4383 7.7541 13.7326 7.5185 14.111 7.38 14.4895 7.38 14.6598 7.38 14.8302 7.4042 15.0004 7.4526 15.0242 7.4593 15.053 7.4659 15.0733 7.452 15.088 7.4418 15.0969 7.4282 15.1066 7.4132L18.4703 2.2032 17.4453 1.1783C16.7902.5231 16.4626.1955 16.0837.0757 15.7645-.0252 15.4218-.0252 15.1026.0757 14.7237.1955 14.3961.5231 13.741 1.1783L9.0111 5.9081ZM8.5314 16.004 4.6199 10.2994 8.2734 6.6458C8.6148 6.7951 9.8518 7.3179 10.9638 7.7879L10.9838 7.7963C11.8305 8.1541 12.6014 8.4799 12.8432 8.5844 12.8676 8.5949 12.8898 8.6045 12.9005 8.6287 12.9069 8.6433 12.9038 8.6625 12.9005 8.6781 12.8758 8.795 12.8636 8.9119 12.8636 9.0288 12.8636 9.4583 13.0318 9.8602 13.3261 10.165 13.3503 10.1888 13.326 10.2238 13.3046 10.2545L13.3045 10.2547 13.3034 10.2562 13.2983 10.2637 13.2932 10.2714 9.5843 16.0172 9.5841 16.0175C9.5741 16.033 9.5649 16.0472 9.5494 16.0573 9.5297 16.0702 9.5021 16.0644 9.4793 16.0586 9.3348 16.022 9.1799 15.9982 9.0371 15.9982 8.9043 15.9982 8.759 16.0231 8.613 16.0492L8.6117 16.0495 8.6115 16.0495C8.5958 16.0524 8.5812 16.055 8.5682 16.0455 8.5538 16.0352 8.5414 16.0186 8.5314 16.004ZM22.9835 11.1348C22.8751 11.0142 22.7406 10.9067 22.5798 10.8245 22.576 10.8226 22.5723 10.8212 22.5688 10.8198L22.5684 10.8197C22.5618 10.8171 22.5557 10.8148 22.5499 10.8092 22.5309 10.7913 22.5235 10.7592 22.5276 10.7335L23.1559 6.8887 26.1053 9.8382 23.0384 11.1431C23.0299 11.1468 23.0207 11.1486 23.0115 11.1486 23.0055 11.1486 23.0021 11.1486 22.9991 11.1476 22.9951 11.1461 22.9917 11.1429 22.9841 11.1354L22.9835 11.1348ZM23.6194 11.9602 26.8572 10.5903 30.0105 13.7435 30.0108 13.7438C30.6657 14.3988 30.9932 14.7263 31.113 15.1051 31.1308 15.161 31.1453 15.2177 31.1568 15.2748L23.6214 12.0841 23.6095 12.0793 23.6093 12.0792C23.5789 12.0668 23.5441 12.0528 23.5441 12.0217 23.5441 11.9912 23.5798 11.9765 23.6096 11.9642L23.61 11.964 23.6194 11.9602ZM31.0281 16.287 23.1773 12.9666C23.1512 12.9556 23.1194 12.9429 23.0938 12.9551 23.0851 12.9592 23.08 12.9661 23.0743 12.9737L23.0743 12.9737 23.0718 12.9771C22.8476 13.2743 22.5153 13.4634 22.1286 13.518 22.091 13.518 22.0844 13.5656 22.0787 13.6061L22.0761 13.6237 21.2108 18.9324 21.2089 18.9436C21.204 18.9707 21.1987 19.0002 21.2175 19.0188 21.5259 19.2543 21.7081 19.6007 21.7502 19.9887 21.7502 20.026 21.7942 20.0332 21.8344 20.0398L21.8378 20.0404 21.8379 20.0404 21.8425 20.0411 21.8561 20.0436 21.8587 20.0441 26.4566 21.0017 30.0106 17.4477 30.0112 17.4472C30.5486 16.9097 30.8655 16.5927 31.0281 16.287ZM21.5217 20.9747 25.6386 21.8198 19.7929 27.6655 20.7943 21.5152 20.7955 21.5067 20.7956 21.5058 20.7956 21.5058C20.7966 21.4984 20.7976 21.491 20.8003 21.4839 20.8081 21.4642 20.8295 21.4557 20.8498 21.4477L20.8498 21.4477 20.85 21.4476 20.8595 21.4438C21.0816 21.3514 21.2701 21.2047 21.425 21.0234 21.4447 21.0003 21.4683 20.9789 21.4982 20.9737 21.5049 20.9726 21.5151 20.9733 21.5217 20.9747ZM18.556 28.9026C18.7901 27.4669 19.6626 22.1489 19.7642 21.5303 19.7661 21.5188 19.7711 21.5061 19.7759 21.4938 19.7865 21.4669 19.7966 21.4411 19.7738 21.4299 19.3631 21.2675 19.0594 20.9068 18.9409 20.4898 18.9394 20.4843 18.9383 20.4789 18.9374 20.4738 18.935 20.4609 18.9328 20.4496 18.9224 20.4392 18.9077 20.4248 18.8806 20.4163 18.8605 20.4122L10.7898 18.7478C10.7708 18.7438 10.7476 18.74 10.7304 18.7491 10.7106 18.7597 10.6999 18.778 10.6886 18.7973L10.687 18.7999 10.6705 18.8283C10.6497 18.864 10.6308 18.8965 10.6085 18.9284L10.6059 18.9319 10.6006 18.9388C10.5922 18.9494 10.5838 18.96 10.5827 18.9732 10.581 18.9914 10.5927 19.007 10.6042 19.022 10.6071 19.0259 10.6099 19.0297 10.6126 19.0335L17.8968 29.5618 18.556 28.9026ZM9.8594 19.656 17.1794 30.2783C16.6939 30.759 16.4076 31.0132 16.0838 31.1156 15.7646 31.2166 15.4218 31.2166 15.1026 31.1156 14.7237 30.9958 14.3961 30.6682 13.741 30.0131L6.4256 22.6977 8.336 19.7338C8.3455 19.7192 8.354 19.7059 8.3683 19.6958 8.389 19.6811 8.4186 19.6882 8.4428 19.6957 8.6395 19.7564 8.825 19.7811 9.023 19.7811 9.2785 19.7811 9.5211 19.7301 9.7755 19.6281 9.797 19.6194 9.8193 19.6143 9.8365 19.6296 9.8447 19.6369 9.8532 19.647 9.8594 19.656ZM5.7203 21.9921 7.5516 19.1511C7.5607 19.1371 7.5675 19.1237 7.5582 19.1098 7.5558 19.1065 7.5502 19.1002 7.5477 19.097 7.5161 19.0553 7.4845 19.0134 7.4529 18.9653 7.4491 18.9597 7.4455 18.9535 7.4418 18.9471L7.4418 18.9471C7.4268 18.9215 7.4107 18.894 7.3833 18.894 7.374 18.894 7.3649 18.8959 7.3564 18.8996L4.0416 20.3133 5.7203 21.9921ZM6.8272 18.0768 3.2992 19.5714 1.1759 17.448 1.1754 17.4476 1.1753 17.4475 1.1753 17.4475C.8144 17.0866.553 16.8251.371 16.5997L6.8261 17.9383C6.8337 17.9399 6.8419 17.9412 6.8503 17.9426 6.8905 17.9491 6.9346 17.9564 6.9346 17.9936 6.9346 18.0341 6.8868 18.053 6.846 18.0691L6.8272 18.0768ZM0 15.5078 7.2795 17.0335 7.2814 17.0338 7.2814 17.0338C7.2937 17.0364 7.3047 17.0387 7.3155 17.0321 7.3332 17.0211 7.3458 17.0003 7.3557 16.982 7.4394 16.8264 7.5585 16.6833 7.6776 16.5526 7.7022 16.5283 7.6779 16.4955 7.6559 16.4658L7.6558 16.4657 7.6498 16.4576 7.645 16.4509C7.2998 15.9563 4.3416 11.683 3.8937 11.0257L1.1759 13.7435 1.1759 13.7435C.5207 14.3987.1932 14.7263.0733 15.1051.0318 15.2365.0074 15.3718 0 15.5078ZM15.8771 8.0451 19.1843 2.9174 22.2909 6.0239 21.5429 10.6585C21.5423 10.6622 21.5418 10.6665 21.5414 10.671 21.5403 10.6816 21.539 10.6934 21.5352 10.7017 21.5279 10.718 21.5119 10.7217 21.4948 10.7256 21.489 10.7269 21.4831 10.7282 21.4773 10.7301 21.32 10.7815 21.1741 10.8539 21.0487 10.9475 21.0428 10.9519 21.038 10.957 21.0332 10.962 21.0238 10.972 21.0149 10.9812 21.0004 10.9821 20.9908 10.9827 20.9746 10.9806 20.9657 10.9768L16.2328 8.9658 16.2232 8.9618C16.1933 8.9495 16.1574 8.9347 16.1574 8.9041 16.1319 8.6511 16.0478 8.3982 15.9161 8.1769L15.9058 8.16 15.9056 8.1598C15.8825 8.1225 15.8579 8.0829 15.8771 8.0451ZM15.9864 9.9184C15.9606 9.9074 15.9284 9.8987 15.9063 9.9158 15.8947 9.9249 15.8873 9.9358 15.879 9.948 15.5693 10.4079 15.0569 10.6778 14.5037 10.6778 14.4302 10.6778 14.3569 10.6672 14.2741 10.6553L14.2374 10.6501C14.1983 10.6501 14.1742 10.6881 14.1526 10.7221L14.1463 10.7321 10.4999 16.3769C10.4978 16.3801 10.4956 16.3833 10.4933 16.3867 10.4917 16.389 10.4901 16.3912 10.4885 16.3935L10.4884 16.3937C10.4671 16.4245 10.4428 16.4595 10.4669 16.4833 10.481 16.4972 10.495 16.4972 10.509 16.4972 10.5225 16.4972 19.6875 12.589 20.3901 12.2893L20.3997 12.2853C20.4288 12.2734 20.4607 12.2601 20.4607 12.2296V12.1049C20.4607 12.0303 20.472 11.9556 20.4845 11.8909 20.4872 11.8766 20.4898 11.8588 20.4844 11.8451 20.474 11.8196 20.4481 11.8086 20.4227 11.7979L15.9864 9.9184ZM10.9746 17.6106C10.9426 17.5021 10.9097 17.3904 10.9054 17.3897L20.895 13.13C20.895 13.13 20.9091 13.1301 20.9231 13.144 20.9778 13.198 21.024 13.2352 21.0683 13.2687 21.0747 13.2736 21.0822 13.2779 21.0897 13.2823L21.0904 13.2827C21.1109 13.2946 21.1317 13.3067 21.1331 13.3285 21.1335 13.3359 21.1327 13.3416 21.1315 13.349L20.2752 18.6054C20.2743 18.6108 20.2736 18.6164 20.2728 18.6222L20.2722 18.6263V18.6263C20.2668 18.6676 20.2607 18.7139 20.2223 18.7139 19.7579 18.7409 19.3469 19.0046 19.1057 19.4026L19.1018 19.409C19.0906 19.4278 19.0799 19.4458 19.0603 19.4556 19.0438 19.4639 19.0217 19.4603 19.0038 19.4565L11.0378 17.8132C11.0341 17.8124 11.0048 17.713 10.9746 17.6106Z"></path></svg>