<svg xmlns="http://www.w3.org/2000/svg" viewBox="0 0 171 171"><g fill="#46E3B7"><g transform="translate(-15853 -8503)"><polygon points="15966.3,8503 15964.3,8503 15964.3,8505 15964.3,8523.6 15964.3,8525.6 15966.3,8525.6 15984.9,8525.6 15986.9,8525.6 15986.9,8523.6 15986.9,8505 15986.9,8503 15984.9,8503"/><path d="M15906.5,8503c-7.2,0-14.2,1.4-20.8,4.2c-6.4,2.7-12.1,6.6-17,11.5c-4.9,4.9-8.8,10.6-11.5,17c-2.8,6.6-4.2,13.6-4.2,20.8v78.4v2h2h18.6h2v-2v-78.7c0.4-8.1,3.8-15.7,9.5-21.3c5.8-5.7,13.4-9,21.5-9.3h41.2h2v-2V8505v-2h-2H15906.5z"/><polygon points="16003.4,8577.2 16001.4,8577.2 16001.4,8579.2 16001.4,8597.8 16001.4,8599.8 16003.4,8599.8 16022,8599.8 16024,8599.8 16024,8597.8 16024,8579.2 16024,8577.2 16022,8577.2"/><polygon points="16003.4,8540.1 16001.4,8540.1 16001.4,8542.1 16001.4,8560.7 16001.4,8562.7 16003.4,8562.7 16022,8562.7 16024,8562.7 16024,8560.7 16024,8542.1 16024,8540.1 16022,8540.1"/><polygon points="16022,8503 16003.4,8503 16001.4,8503 16001.4,8505 16001.4,8523.6 16001.4,8525.6 16003.4,8525.6 16022,8525.6 16024,8525.6 16024,8523.6 16024,8505 16024,8503"/><polygon points="16003.4,8614.3 16001.4,8614.3 16001.4,8616.3 16001.4,8634.9 16001.4,8636.9 16003.4,8636.9 16022,8636.9 16024,8636.9 16024,8634.9 16024,8616.3 16024,8614.3 16022,8614.3"/><polygon points="16003.4,8651.4 16001.4,8651.4 16001.4,8653.4 16001.4,8672 16001.4,8674 16003.4,8674 16022,8674 16024,8674 16024,8672 16024,8653.4 16024,8651.4 16022,8651.4"/><polygon points="15966.3,8651.4 15964.3,8651.4 15964.3,8653.4 15964.3,8672 15964.3,8674 15966.3,8674 15984.9,8674 15986.9,8674 15986.9,8672 15986.9,8653.4 15986.9,8651.4 15984.9,8651.4"/><polygon points="15929.2,8651.4 15927.2,8651.4 15927.2,8653.4 15927.2,8672 15927.2,8674 15929.2,8674 15947.8,8674 15949.8,8674 15949.8,8672 15949.8,8653.4 15949.8,8651.4 15947.8,8651.4"/><polygon points="15892.1,8651.4 15890.1,8651.4 15890.1,8653.4 15890.1,8672 15890.1,8674 15892.1,8674 15910.7,8674 15912.7,8674 15912.7,8672 15912.7,8653.4 15912.7,8651.4 15910.7,8651.4"/><polygon points="15855,8651.4 15853,8651.4 15853,8653.4 15853,8672 15853,8674 15855,8674 15873.6,8674 15875.6,8674 15875.6,8672 15875.6,8653.4 15875.6,8651.4 15873.6,8651.4"/></g></g></svg>
