<svg xmlns="http://www.w3.org/2000/svg" viewBox="0 0 100 100"><path d="M98.849 45.191zM26.042 44.932S12.394 95.218 67.097 95.656c17.163-6.39 29.81-22.054 31.727-40.939.132-1.306.171-2.639.2-3.973.006-.352.053-.693.053-1.046 0-1.521-.093-3.02-.227-4.507-14.452 56.894-78.388 34.61-72.808-.259z" fill="#373737"/><path d="M54.326 26.267S3.395 12.044 4.178 67.58a49.217 49.217 0 0011.87 17.742c.218.207.444.403.665.606a49.233 49.233 0 004.654 3.793c.253.18.49.38.744.556a48.884 48.884 0 005.373 3.19c.54.278 1.094.532 1.641.791a48.592 48.592 0 004.907 1.991c.41.14.802.315 1.218.446a48.66 48.66 0 006.108 1.444c.624.11 1.256.201 1.888.288 2.142.31 4.302.478 6.467.503.083 0 .163.013.246.013 1.632 0 3.244-.088 4.833-.244-57.146-13.628-35.425-77.529-.466-72.43z" fill="#373737"/><path d="M74.178 52.604s12.05-50.8-42.19-48.532C13.8 11.257.924 28.954.924 49.694c.017 2.233.185 4.463.504 6.673 11.415-57.474 76.448-38.86 72.75-3.763z" fill="#373737"/><path d="M48.135 74.465s51.02 6.66 47.827-41.848c-6.944-18.672-24.873-32-45.961-32a49.258 49.258 0 00-8.9.846c56.85 6.979 42.074 73.498 7.034 73.002z" fill="#373737"/><path d="M64.163 49.7a13.746 13.746 0 11-27.493-.001 13.746 13.746 0 0127.493 0z" fill="#373737"/></svg>
